# xmcd
#
# Track frame offsets:
# 150
# 15206
# 28813
# 47213
# 61705
# 72334
# 87648
# 100691
# 118436
# 132399
# 150137
# 164632
# 179692
# 199001
# 217324
#
# Disc length: 2993 seconds
#
#
# Revision: 0
# Processed by: cddbd v1.5.1PL0 Copyright (c) Steve Scherf et al.
# Submitted via: FreeRIP 2.51 
#
DISCID=d90baf0f
DTITLE=Mark Chesnutt - Savin' the Honky Tonk
DYEAR=2004
DGENRE=Country
TTITLE0=Somebody Save the Honky Tonk
TTITLE1=I'm A Saint
TTITLE2=The Lord Loves the Drinkin' Man
TTITLE3=Would These Arms Be In the Way
TTITLE4=You Can't Do Me This Way
TTITLE5=A Hard Secret To Keep
TTITLE6=What Are We Doing In Love
TTITLE7=Don't Ruin It For the Rest of Us
TTITLE8=Mama's House
TTITLE9=Since You Ain't Home
TTITLE10=Think Like A Woman
TTITLE11=Then We All Can Go Home
TTITLE12=Beer, Bait, and Ammo
TTITLE13=My Best Drinkin'
TTITLE14=Honky Tonk Heroes
EXTD=
EXTT0=
EXTT1=
EXTT2=
EXTT3=
EXTT4=
EXTT5=
EXTT6=
EXTT7=
EXTT8=
EXTT9=
EXTT10=
EXTT11=
EXTT12=
EXTT13=
EXTT14=
PLAYORDER=
